<svg width="24" height="24" viewBox="0 0 24 24" fill="none" xmlns="http://www.w3.org/2000/svg">
<path d="M20.054 14.6341C22.2985 8.60693 11.2956 5.41756 9.47483 12.4736C9.45451 12.5523 9.38647 12.6159 9.30638 12.6301C3.90154 13.5874 4.17303 20.8835 11.0354 20.5171C12.6344 20.4317 17.0767 20.539 19.1262 20.539C24.316 20.8318 23.8785 15.1187 20.2521 14.9371C20.1046 14.9297 20.0025 14.7725 20.054 14.6341Z" stroke="black" stroke-width="1.5"/>
<path d="M9.62936 4.72593L10.0907 3.71919M5.38507 4.55121L4.98299 3.45M1 12.1413L2.05044 11.7516M2.26579 7.45772L1.26705 6.99267M9.72776 7.46071C8.83185 6.51923 7.43501 6.1472 6.14277 6.62661C4.40235 7.27229 3.51072 9.21789 4.15127 10.9722C4.28566 11.3403 4.47682 11.6707 4.71108 11.9571" stroke="black" stroke-width="1.5" stroke-linecap="round"/>
</svg>
