<svg width="24" height="24" viewBox="0 0 24 24" fill="none" xmlns="http://www.w3.org/2000/svg">
<g clip-path="url(#clip0_386_405)">
<path d="M10.3208 17.7451C4.65082 17.4233 4.65648 11.0965 9.58418 10.2252C9.66424 10.211 9.7321 10.1477 9.75262 10.069C11.5038 3.35402 22.0436 6.38454 19.9125 12.1209C19.861 12.2595 19.9624 12.417 20.1101 12.4249C23.3886 12.6005 23.9378 17.4624 19.7896 17.7619" stroke="black" stroke-width="1.5" stroke-linecap="round"/>
<path d="M12.4697 17.7619H16.1981C17.0344 17.7619 17.7078 17.0551 17.7078 16.1905C17.7078 15.3201 17.0287 14.619 16.1981 14.619C15.3619 14.619 14.6884 15.3259 14.6884 16.1905" stroke="black" stroke-width="1.5" stroke-miterlimit="10" stroke-linecap="round" stroke-linejoin="round"/>
<path d="M8.06934 19.8571H14.7594C15.696 19.8571 16.4503 20.564 16.4503 21.4286C16.4503 22.299 15.6897 23 14.7594 23C13.8229 23 13.0686 22.2931 13.0686 21.4286" stroke="black" stroke-width="1.5" stroke-miterlimit="10" stroke-linecap="round" stroke-linejoin="round"/>
<path d="M10.2098 2.38417L10.6883 1.29203M5.8078 2.19463L5.39078 1M1.25977 10.4286L2.34924 10.0058M2.5726 5.34771L1.53674 4.8432M10.3119 5.35095C9.38268 4.32959 7.93393 3.92601 6.59366 4.44609C4.78856 5.14654 3.8638 7.25719 4.52815 9.16037C4.66754 9.55966 4.8658 9.9181 5.10876 10.2288" stroke="black" stroke-width="1.5" stroke-linecap="round"/>
</g>
<defs>
<clipPath id="clip0_386_405">
<rect width="24" height="24" fill="white"/>
</clipPath>
</defs>
</svg>
